<?xml version="1.0" encoding="UTF-8" standalone="no"?>
<svg
   xmlns:dc="http://purl.org/dc/elements/1.1/"
   xmlns:cc="http://creativecommons.org/ns#"
   xmlns:rdf="http://www.w3.org/1999/02/22-rdf-syntax-ns#"
   xmlns:svg="http://www.w3.org/2000/svg"
   xmlns="http://www.w3.org/2000/svg"
   version="1.1"
   id="svg2"
   viewBox="0 0 548.78536 698.01149"
   height="196.99435mm"
   width="154.87943mm">
  <defs
     id="defs4" />
  <metadata
     id="metadata7">
    <rdf:RDF>
      <cc:Work
         rdf:about="">
        <dc:format>image/svg+xml</dc:format>
        <dc:type
           rdf:resource="http://purl.org/dc/dcmitype/StillImage" />
        <dc:title></dc:title>
      </cc:Work>
    </rdf:RDF>
  </metadata>
  <g
     transform="translate(-88.30931,-166.16055)"
     id="layer1">
    <g
       id="text3336"
       style="font-style:normal;font-variant:normal;font-weight:normal;font-stretch:normal;font-size:314.76300049px;line-height:125%;font-family:KaiTi;-inkscape-font-specification:'KaiTi, Normal';text-align:start;letter-spacing:0px;word-spacing:0px;writing-mode:lr-tb;text-anchor:start;fill:#000000;fill-opacity:1;stroke:none;stroke-width:1px;stroke-linecap:butt;stroke-linejoin:miter;stroke-opacity:1">
      <path
         id="path3343"
         style=""
         d="m 211.16297,246.09198 q 45.49309,-7.37726 55.32943,-12.29543 11.06589,-6.14771 19.67269,-1.22954 8.6068,4.91817 18.44315,12.29543 9.83634,6.14771 1.22954,12.29543 -8.6068,6.14771 -22.13177,46.72263 18.44314,15.98406 -4.91818,17.2136 -23.36131,1.22955 -68.8544,6.14772 0,93.44526 -2.45909,111.88841 -2.45908,19.67269 -7.37726,20.90223 -4.91817,1.22954 -6.14771,-24.59086 -1.22954,-24.59086 -1.22954,-106.97024 -23.36132,1.22954 -56.55898,6.14772 -1.22954,12.29543 -3.68863,15.98405 -1.22954,3.68863 -4.91817,1.22955 -2.45909,-2.45909 -4.91817,-14.75452 -2.45909,-13.52497 -8.6068,-39.34537 -4.91818,-25.82041 -12.29543,-35.65675 -6.147718,-11.06589 1.22954,-11.06589 7.37726,0 14.75452,2.45909 8.6068,2.45909 29.50903,0 22.13177,-2.45909 45.49309,-6.14772 0,-50.41126 -8.6068,-61.47714 -7.37726,-11.06589 4.91817,-8.6068 12.29543,1.22954 23.36131,7.37725 11.06589,4.91817 4.91818,12.29543 -4.91818,6.14772 -6.14772,49.18172 z m -1.22954,67.62486 q 27.04994,-2.45908 59.01806,-7.37725 3.68863,-22.13178 3.68863,-35.65675 1.22954,-13.52497 -2.45909,-18.44314 -3.68863,-4.91818 -17.2136,-2.45909 -13.52497,1.22954 -41.80446,4.91817 -1.22954,34.42721 -1.22954,59.01806 z m -79.9203,-49.18171 q 2.45909,29.50903 6.14772,59.01806 23.36132,-2.45909 56.55898,-7.37726 l 0,-59.01806 q -45.49309,4.91817 -62.7067,7.37726 z" />
      <path
         id="path3345"
         style=""
         d="m 594.78038,408.39165 q -25.8204,-2.45908 -57.78852,1.22955 -31.96812,2.45908 -56.55898,4.91817 -24.59086,1.22954 -40.57492,0 -8.6068,31.96812 -17.2136,11.06589 -7.37726,-19.67269 -2.45908,-34.42721 6.14771,-15.98406 7.37725,-88.52709 1.22955,-72.54304 -7.37725,-84.83847 -8.6068,-12.29543 -1.22955,-11.06588 8.6068,0 18.44315,2.45908 9.83634,2.45909 45.49309,-1.22954 35.65674,-4.91817 61.47715,-8.6068 25.8204,-4.91817 35.65674,-8.6068 11.06589,-3.68863 22.13178,0 11.06588,3.68863 19.67268,12.29543 8.6068,7.37726 1.22955,17.2136 -7.37726,9.83634 -4.91818,89.75664 3.68863,78.69075 4.91818,95.90435 1.22954,17.2136 -6.14772,34.4272 -7.37726,17.2136 -13.52497,2.45909 -4.91817,-14.75452 -8.6068,-34.42721 z m -154.92242,-3.68863 q 56.55898,-3.68862 97.1339,-8.6068 41.80446,-4.91817 61.47715,2.45909 4.91817,-13.52497 2.45908,-94.67481 -2.45908,-81.14984 -7.37726,-88.52709 -4.91817,-8.6068 -20.90223,-7.37726 -14.75451,1.22954 -129.10201,13.52497 0,87.29755 -3.68863,183.2019 z m 79.9203,-147.54515 q 8.6068,6.14771 6.14771,12.29543 -1.22954,4.91817 -2.45908,18.44314 13.52497,-2.45908 20.90223,-3.68863 8.6068,-2.45908 14.75451,3.68863 7.37726,6.14772 -6.14771,9.83635 -13.52498,3.68863 -29.50903,6.14771 l -1.22955,45.49309 q 25.8204,-3.68863 41.80446,-6.14771 15.98406,-3.68863 23.36132,6.14771 8.6068,8.6068 -8.6068,8.6068 -15.98406,-1.22954 -36.88629,1.22954 -20.90223,2.45909 -35.65675,6.14772 -13.52497,2.45909 -27.04994,4.91817 -13.52497,2.45909 -23.36132,-4.91817 -8.6068,-8.6068 4.91817,-8.6068 14.75452,0 47.95218,-6.14772 l 0,-44.26354 q -23.36132,1.22954 -30.73857,-2.45909 -7.37726,-4.91817 3.68862,-7.37726 11.06589,-2.45908 27.04995,-6.14771 0,-18.44315 -3.68863,-30.73858 -20.90223,1.22955 -30.73857,-2.45908 -8.6068,-4.91817 2.45908,-6.14772 11.06589,-2.45908 33.19766,-7.37725 23.36132,-6.14772 34.42721,-8.60681 11.06588,-3.68862 18.44314,1.22955 7.37726,4.91817 -2.45909,9.83634 -9.83634,4.91817 -40.57491,11.06589 z m 43.034,76.23166 q -9.83634,-7.37726 -15.98406,-17.2136 -6.14771,-9.83634 4.91817,-7.37726 11.06589,1.22955 18.44315,7.37726 7.37726,6.14772 4.91817,15.98406 -1.22954,8.6068 -12.29543,1.22954 z" />
      <path
         id="path3347"
         style=""
         d="m 211.16297,639.54573 q 45.49309,-7.37726 55.32943,-12.29543 11.06589,-6.14771 19.67269,-1.22954 8.6068,4.91817 18.44315,12.29543 9.83634,6.14771 1.22954,12.29543 -8.6068,6.14771 -22.13177,46.72263 18.44314,15.98406 -4.91818,17.2136 -23.36131,1.22955 -68.8544,6.14772 0,93.44526 -2.45909,111.88841 -2.45908,19.67269 -7.37726,20.90223 -4.91817,1.22954 -6.14771,-24.59086 -1.22954,-24.59086 -1.22954,-106.97024 -23.36132,1.22954 -56.55898,6.14772 -1.22954,12.29543 -3.68863,15.98405 -1.22954,3.68863 -4.91817,1.22955 -2.45909,-2.45909 -4.91817,-14.75452 -2.45909,-13.52497 -8.6068,-39.34537 -4.91818,-25.82041 -12.29543,-35.65675 -6.147718,-11.06589 1.22954,-11.06589 7.37726,0 14.75452,2.45909 8.6068,2.45909 29.50903,0 22.13177,-2.45909 45.49309,-6.14772 0,-50.41126 -8.6068,-61.47714 -7.37726,-11.06589 4.91817,-8.6068 12.29543,1.22954 23.36131,7.37725 11.06589,4.91818 4.91818,12.29543 -4.91818,6.14772 -6.14772,49.18172 z m -1.22954,67.62487 q 27.04994,-2.45909 59.01806,-7.37726 3.68863,-22.13178 3.68863,-35.65675 1.22954,-13.52497 -2.45909,-18.44314 -3.68863,-4.91818 -17.2136,-2.45909 -13.52497,1.22954 -41.80446,4.91817 -1.22954,34.42721 -1.22954,59.01807 z m -79.9203,-49.18172 q 2.45909,29.50903 6.14772,59.01806 23.36132,-2.45909 56.55898,-7.37726 l 0,-59.01806 q -45.49309,4.91817 -62.7067,7.37726 z" />
      <path
         id="path3349"
         style=""
         d="m 592.32129,799.38632 q -43.034,0 -72.54303,2.45908 -29.50903,2.45909 -54.09989,3.68863 -23.36132,1.22955 -30.73858,0 -6.14771,24.59086 -12.29543,11.06589 -4.91817,-14.75452 -4.91817,-20.90223 0,-7.37726 2.45909,-18.44315 3.68862,-12.29542 6.14771,-60.2476 2.45909,-47.95218 1.22954,-73.77258 0,-25.8204 -4.91817,-35.65675 -4.91817,-9.83634 0,-8.6068 4.91817,0 12.29543,3.68863 7.37726,2.45909 13.52497,2.45909 6.14772,-1.22954 39.34538,-4.91817 33.19766,-3.68863 59.01806,-8.6068 27.04995,-4.91818 33.19766,-7.37726 6.14772,-2.45909 15.98406,4.91817 11.06589,6.14772 17.2136,13.52497 7.37726,6.14772 2.45909,14.75452 -4.91817,7.37726 -4.91817,25.8204 0,17.2136 1.22954,40.57492 2.45909,23.36132 3.68863,49.18172 1.22954,24.59086 2.45908,41.80446 1.22955,15.98406 -1.22954,31.96812 -2.45908,14.75451 -7.37726,23.36131 -4.91817,9.83635 -9.83634,-4.91817 -4.91817,-13.52497 -7.37726,-25.8204 z M 442.31705,612.49579 q -1.22954,68.8544 -2.45909,94.67481 -1.22954,25.8204 -4.91817,89.75663 27.04995,-1.22954 57.78852,-3.68863 30.73858,-2.45908 50.41126,-4.91817 20.90223,-3.68863 31.96812,-3.68863 11.06589,0 14.75452,4.91817 3.68862,3.68863 6.14771,-6.14771 2.45909,-9.83634 1.22954,-55.32943 -1.22954,-46.72264 -4.91817,-81.14984 -2.45908,-35.65675 -8.6068,-40.57492 -4.91817,-4.91817 -9.83634,-4.91817 -3.68863,-1.22954 -13.52498,-1.22954 -8.6068,0 -17.2136,1.22954 -7.37725,1.22954 -45.49309,6.14771 -36.88629,3.68863 -55.32943,4.91818 z m 78.69075,24.59086 q 14.75452,-3.68863 18.44314,-1.22955 4.91818,1.22955 6.14772,3.68863 1.22954,2.45909 -3.68863,4.91817 -3.68863,2.45909 -18.44314,4.91818 8.6068,31.96811 23.36131,57.78852 11.06589,-31.96812 7.37726,-43.03401 -2.45909,-11.06589 7.37726,-6.14771 11.06588,4.91817 14.75451,8.6068 3.68863,3.68863 0,7.37726 -3.68863,3.68862 -8.6068,15.98405 -3.68863,11.06589 -12.29543,30.73858 7.37726,13.52497 14.75452,19.67269 7.37726,4.91817 9.83634,-1.22955 3.68863,-6.14771 6.14772,-13.52497 3.68863,-7.37726 2.45908,8.6068 -1.22954,15.98406 1.22955,25.8204 2.45908,9.83635 1.22954,13.52498 0,3.68862 -4.91817,2.45908 -4.91817,-2.45908 -15.98406,-12.29543 -11.06589,-9.83634 -23.36132,-28.27949 -20.90223,29.50904 -39.34537,38.11584 -17.2136,8.6068 -6.14772,-1.22955 11.06589,-9.83634 19.67269,-22.13177 9.83634,-13.52497 18.44314,-30.73857 -14.75451,-27.04995 -27.04994,-67.62487 -8.6068,1.22954 -22.13177,3.68863 -12.29543,2.45909 -23.36132,-1.22954 -9.83634,-4.91817 -1.22954,-6.14772 8.6068,-2.45908 17.2136,-3.68863 8.6068,-1.22954 24.59086,-4.91817 -7.37726,-14.75451 -14.75452,-20.90223 -6.14771,-6.14771 2.45909,-6.14771 9.83634,-1.22955 15.98406,1.22954 7.37725,1.22954 7.37725,8.6068 0,7.37726 2.45909,14.75452 z m -20.90223,75.00212 q 11.06589,11.06588 0,12.29543 -9.83634,0 -33.19766,2.45908 -2.45909,12.29543 -6.14772,4.91817 -2.45908,-7.37725 -4.91817,-20.90223 -1.22954,-13.52497 -6.14771,-20.90223 -3.68863,-7.37725 1.22954,-6.14771 6.14772,1.22954 9.83634,2.45908 3.68863,0 13.52498,-1.22954 11.06588,-2.45908 15.98406,-6.14771 4.91817,-3.68863 11.06588,-1.22955 6.14772,2.45909 9.83635,6.14772 4.91817,3.68863 -1.22955,8.6068 -4.91817,4.91817 -9.83634,19.67269 z m 15.98406,28.27949 q 0,2.45908 -13.52497,8.6068 -13.52498,4.91817 -23.36132,9.83634 -8.6068,3.68863 -13.52497,7.37726 -4.91818,3.68863 -11.06589,0 -4.91817,-3.68863 -8.6068,-8.6068 -2.45909,-4.91817 4.91817,-4.91817 8.6068,0 31.96812,-6.14772 23.36131,-6.14771 28.27949,-7.37726 6.14771,-1.22954 4.91817,1.22955 z m -51.64081,-46.72264 q 1.22955,9.83635 2.45909,24.59086 4.91817,0 23.36132,-3.68863 2.45908,-17.2136 1.22954,-20.90223 -1.22954,-4.91817 -6.14772,-3.68863 -4.91817,1.22955 -20.90223,3.68863 z M 546.8282,618.6435 q 6.14772,-1.22954 12.29543,2.45909 7.37726,3.68863 9.83635,11.06588 3.68862,7.37726 -1.22955,11.06589 -4.91817,2.45909 -15.98406,-11.06589 -11.06588,-13.52497 -4.91817,-13.52497 z" />
    </g>
  </g>
</svg>
