<?xml version="1.0" encoding="utf-8"?>
<!-- Generator: Adobe Illustrator 16.0.0, SVG Export Plug-In . SVG Version: 6.00 Build 0)  -->
<!DOCTYPE svg PUBLIC "-//W3C//DTD SVG 1.1//EN" "http://www.w3.org/Graphics/SVG/1.1/DTD/svg11.dtd">
<svg version="1.1" id="Layer_1" xmlns="http://www.w3.org/2000/svg" xmlns:xlink="http://www.w3.org/1999/xlink" x="0px" y="0px"
	 width="283.46px" height="228.76px" viewBox="0 0 283.46 228.76" enable-background="new 0 0 283.46 228.76" xml:space="preserve">
<g>
	<path fill="#005582"  d="M132.64,103.784c0.661,0.652,1.293,1.321,1.926,1.983c0.425,0.444,0.897,0.812,1.482,0.377
		c0.585-0.434,0.859-1.085,0.501-1.766c-0.501-0.953-1.029-1.906-1.671-2.757c-3.295-4.343-6.77-8.555-9.914-13.001
		c-3.229-4.552-6.194-9.293-9.188-14.004c-3.673-5.75-7.195-11.595-11.51-16.901c-1.284-1.595-2.794-3.031-4.315-4.409
		c-0.623-0.566-1.521-0.897-2.351-1.152c-1.454-0.454-2.493-1.247-2.767-2.795c-0.283-1.558-0.416-3.154-0.793-4.674
		c-0.444-1.785-1.02-3.531-1.662-5.25c-0.528-1.407-1.586-1.756-3.484-1.69c-1.737,0.057-3.465,0.217-5.203,0.217
		c-1.577,0.009-3.163-0.217-4.73-0.198c-1.199,0.009-2.398,0.16-3.579,0.377c-1.02,0.179-1.548,0.963-1.718,1.936
		c-0.151,0.935-0.264,1.879-0.283,2.823c-0.047,1.804-0.085,3.617,0,5.429c0.142,3.182,0.793,6.27,2.03,9.225
		c1.548,3.692,3.918,6.883,6.279,10.056c1.842,2.493,2.795,5.288,3.154,8.261c0.387,3.192,0.623,6.431,0.632,9.642
		c0.01,3.125-0.292,6.25-0.585,9.366c-0.265,2.821-0.689,5.637-1.077,8.45c-0.066,0.491-0.255,0.98-0.463,1.443
		c-0.585,1.285-1.236,1.597-2.568,1.104c-1.454-0.547-2.908-0.642-4.372-0.16c-1.275,0.436-2.436-0.104-3.635-0.303
		c-1.369-0.215-2.7-0.225-3.985,0.463c-1.208,0.644-1.784,1.662-1.586,3.013c0.208,1.464,0.283,1.69,1.662,1.246
		c1.747-0.567,3.201,0.133,4.75,0.548c0.802,0.217,1.482,0.197,2.266-0.246c0.576-0.321,1.397-0.444,2.068-0.35
		c1.851,0.247,3.673,0.756,5.523,0.955c0.736,0.085,1.539-0.388,2.313-0.568c0.557-0.132,1.133-0.33,1.681-0.273
		c2.483,0.265,4.938,0.746,7.421,0.897c2.965,0.179,5.25-1.152,5.542-4.655c0.161-2.012,0.142-4.041,0.198-6.062
		c0.019-0.34,0.009-0.681,0.009-1.331c0.963,0.547,1.652,0.972,2.37,1.34c0.727,0.377,1.473,0.746,2.247,1.021
		c1.208,0.424,2.144-0.048,2.352-1.304c0.273-1.681,0.358-3.39,0.519-5.081c0.038-0.357,0.057-0.718,0.085-1.076
		c0.085-0.047,0.17-0.094,0.255-0.141c0.358,0.359,0.803,0.671,1.058,1.085c1.69,2.719,3.371,5.448,4.985,8.205
		c1.029,1.756,1.945,3.56,2.899,5.354c0.85,1.586,2.2,2.596,3.795,3.313c3.598,1.614,7.384,2.247,11.293,2.153
		c0.416-0.011,0.812-0.151,1.218-0.21c2.077-0.254,2.965-1.357,2.106-3.587c-0.727-1.879-2.059-3.54-3.135-5.288
		c-0.292-0.472-0.651-0.896-0.981-1.351c0.066-0.075,0.123-0.141,0.179-0.217C132.14,103.444,132.423,103.577,132.64,103.784z
		 M97.213,103.247c-0.208,2.813-1.501,4.428-5.089,3.822c-1.586-0.263-3.16-0.596-4.73-0.933c-0.75-0.161-1.237-0.235-0.869-2.333
		c0.409-2.329,0.85-4.664,1.218-7.006c0.123-0.793,0.479-0.872,1.143-0.719c1.313,0.306,2.389,0.822,3.531,1.342
		c1.417,0.651,2.474,0.34,3.154-1.047c0.16-0.313,0.311-0.624,0.519-1.058c0.151,0.263,1.21,2.205,1.22,2.308
		C97.375,99.646,97.355,101.234,97.213,103.247z M88.272,80.905c-0.01-0.537,0-1.076-0.01-1.604
		c0.095-0.021,0.189-0.029,0.274-0.049c0.123,0.171,0.274,0.331,0.368,0.5c1.482,2.625,2.89,5.288,4.447,7.865
		c1.312,2.191,1.312,4.429,0.614,6.761c-0.283,0.944-0.869,1.029-1.766,0.643c-0.888-0.377-1.851-0.671-2.804-0.765
		c-1.341-0.133-1.369-0.029-1.332-1.426c0.038-1.927,0.132-3.853,0.198-5.789c0.019-0.66,0.019-1.331,0.019-1.991
		C88.281,83.673,88.272,82.284,88.272,80.905z M131.828,109.261c0.595,0.973-0.057,1.719-1.209,1.605
		c-0.755-0.076-1.52-0.096-2.275-0.151c-1.86-0.123-3.598-0.558-5.146-1.709c-2.407-1.794-3.89-4.306-5.4-6.808
		c-1.69-2.785-3.22-5.686-5.042-8.396c-1.189-1.765-2.729-3.305-4.192-4.872c-0.491-0.519-1.124-0.869-1.803-0.869
		c-0.292,0-0.595,0.066-0.897,0.21c-0.982,0.462-0.935,1.529-0.916,2.426c0.019,1.926,0.161,3.853,0.208,5.777
		c0.028,1.029-0.453,1.332-1.378,0.926c-0.935-0.407-1.898-0.774-2.757-1.293c-0.463-0.283-0.869-0.793-1.114-1.294
		c-1.265-2.597-2.351-5.269-3.72-7.799c-1.463-2.701-3.257-5.222-4.74-7.913c-0.963-1.748-1.445-3.749-2.445-5.457
		c-0.756-1.284-1.53-2.55-2.333-3.796c-0.274-0.434-0.547-0.859-0.821-1.284c-0.973-1.521-1.983-3.021-3.012-4.513
		c-1.907-2.748-3.692-5.533-4.825-8.706c-1.313-3.673-1.511-7.488-1.454-11.34c0.019-2.096,0.916-3.05,3.012-3.012
		c2.691,0.038,5.372,0.123,8.063,0.227c1.766,0.066,2.879,0.85,3.134,2.237c0.246,1.332,0.425,2.682,0.52,4.042
		c0.18,2.644,1.029,4.881,3.437,6.298c0.151,0.084,0.292,0.17,0.444,0.255c1.039,0.585,2.115,1.142,3.012,1.897
		c2.587,2.181,4.599,4.891,6.449,7.705c3.267,4.985,6.392,10.065,9.678,15.041c2.833,4.288,5.797,8.489,8.696,12.729
		c0.255,0.368,0.491,0.755,0.736,1.143c-0.066,0.057-0.132,0.113-0.198,0.17c-0.208-0.15-0.424-0.293-0.623-0.452
		c-1.275-1.096-2.502-2.258-3.833-3.267c-4.117-3.136-8.158-6.374-12.436-9.265c-4.881-3.284-9.697-6.637-13.625-11.056
		c-1.35-1.529-2.521-3.267-3.503-5.051c-1.02-1.841-0.227-3.466,1.813-3.909c1.473-0.321,3.012-0.312,4.504-0.538
		c0.406-0.066,0.963-0.406,1.067-0.737c0.123-0.406-0.009-1.189-0.293-1.359c-0.764-0.425-1.652-0.803-2.511-0.85
		c-0.085,0-0.179-0.009-0.265-0.009c-0.906,0-1.841,0.217-2.719,0.463c-4.844,1.34-6.043,3.909-4.22,8.715
		c0.254,0.651,0.547,1.284,0.887,1.879c0.255,0.453,0.538,0.887,0.84,1.303c0.897,1.265,1.974,2.408,3.106,3.456
		c2.153,2.001,4.551,3.739,6.893,5.514c3.398,2.576,6.854,5.08,10.263,7.647c0.009,0.01,0.028,0.021,0.038,0.029
		c1.133,0.859,2.267,1.728,3.39,2.615c5.155,4.062,10.244,8.252,14.342,13.428C128.608,103.756,130.176,106.552,131.828,109.261z"/>
	<path fill="#005582" d="M82.675,45.661c-1.089-1.098-3.289-1.231-4.587-0.359c-0.621,0.416-0.766,1.549-0.16,2.149
		c0.515,0.512,1.137,0.958,1.784,1.292c1.151,0.592,1.682,1.456,1.657,2.754c-0.019,1.043-0.051,2.125,0.183,3.127
		c0.359,1.535,2.308,1.964,3.309,0.725c0.469-0.582,0.707-1.424,0.838-2.184c0.136-0.78-0.007-1.604,0.007-2.41
		c0.024-1.219,0.639-1.811,1.838-1.81c0.433,0,0.868,0.014,1.301,0.006c0.963-0.019,1.34-0.466,1.211-1.417
		c-0.153-1.116-1.5-2.541-2.619-2.768c-1.049-0.213-2.287,0.5-2.928,1.673c-0.168,0.309-0.375,0.598-0.63,1.001
		C83.401,46.716,83.119,46.107,82.675,45.661z"/>
	<path fill="#005582"  d="M83.879,47.436c-0.478-0.72-0.761-1.329-1.204-1.775c-1.089-1.098-3.289-1.231-4.587-0.359
		c-0.621,0.416-0.766,1.549-0.16,2.149c0.515,0.512,1.137,0.958,1.784,1.292c1.151,0.592,1.682,1.456,1.657,2.754
		c-0.019,1.043-0.051,2.125,0.183,3.127c0.359,1.535,2.308,1.964,3.309,0.725c0.469-0.582,0.707-1.424,0.838-2.184
		c0.136-0.78-0.007-1.604,0.007-2.41c0.024-1.219,0.639-1.811,1.838-1.81c0.433,0,0.868,0.014,1.301,0.006
		c0.963-0.019,1.34-0.466,1.211-1.417c-0.153-1.116-1.5-2.541-2.619-2.768c-1.049-0.213-2.287,0.5-2.928,1.673
		C84.342,46.744,84.134,47.033,83.879,47.436z"/>
</g>
<path fill="#005582"  d="M250.487,45.625c7.116,0,14.231-0.002,21.347,0.002c1.347,0.001,2.689,0.044,3.959,0.592
	c1.522,0.656,2.555,1.73,2.965,3.368c0.318,1.264,0.259,2.518-0.008,3.781c-0.576,2.686-2.506,4.267-5.23,4.267
	c-15.488-0.002-30.975-0.004-46.462-0.001c-0.242,0-0.509,0.019-0.724,0.115c-2.062,0.925-4.189,1.617-6.414,2.014
	c-1.771,0.315-3.541,0.48-5.299-0.099c-2.313-0.764-2.658-3.582-1.563-5.026c0.68-0.896,1.653-1.29,2.698-1.424
	c3.711-0.474,7.158,0.421,10.451,2.085c0.271,0.137,0.601,0.235,0.897,0.235c15.026,0.01,30.056,0.01,45.081,0.004
	c0.441,0,0.887-0.025,1.322-0.097c1.367-0.223,2.549-0.766,2.938-2.228c0.191-0.721,0.267-1.508,0.218-2.253
	c-0.125-1.811-1.123-2.816-2.931-3.065c-0.597-0.081-1.2-0.125-1.8-0.126c-14.778-0.007-29.559-0.008-44.337,0.001
	c-0.416,0-0.847,0.08-1.246,0.205c-2.181,0.683-4.374,1.291-6.646,1.596c-1.658,0.223-3.311,0.333-4.957-0.085
	c-1.459-0.37-2.429-1.436-2.552-2.835c-0.149-1.731,0.472-2.902,1.956-3.505c1.081-0.438,2.229-0.565,3.391-0.475
	c2.838,0.219,5.522,0.996,8.105,2.172c0.682,0.31,1.283,0.796,2.107,0.794c7.574-0.017,15.15-0.009,22.727-0.009
	C250.487,45.627,250.487,45.626,250.487,45.625z M224.255,57.039c0.172-0.076,0.289-0.272,0.434-0.413
	c-0.15-0.102-0.288-0.245-0.453-0.298c-1.439-0.473-2.865-1.017-4.337-1.367c-1.53-0.364-3.114-0.552-4.628,0.149
	c-1.223,0.567-1.311,1.682-0.217,2.483c1.006,0.742,2.181,0.859,2.848,0.874C220.486,58.46,222.394,57.845,224.255,57.039z
	 M223.964,46.945c0.143-0.053,0.277-0.213,0.336-0.356c0.021-0.057-0.16-0.26-0.283-0.296c-1.682-0.521-3.357-1.083-5.064-1.506
	c-1.179-0.293-2.408-0.38-3.629-0.136c-0.732,0.146-1.427,0.385-1.66,1.197c-0.151,0.525,0.42,1.284,1.209,1.701
	c1.026,0.543,2.138,0.705,3.711,0.687C220.175,48.193,222.085,47.638,223.964,46.945z"/>
<path fill="#005582" d="M223.699,110.959c-2.146,0-3.099-0.89-2.765-3.014c0.728-4.631,2.562-8.831,5.369-12.575
	c4.672-6.228,11.063-9.013,18.733-9.403c9.4-0.479,15.909,4.174,20.904,11.528c1.436,2.111,2.614,4.413,3.736,6.711
	c0.871,1.778,0.896,3.688-0.557,5.225c-1.172,1.239-2.84,1.515-4.475,1.521C257.789,110.985,230.49,110.957,223.699,110.959z
	 M244.369,108.239c0-0.002,0-0.004,0-0.004c5.344-0.001,10.688,0.017,16.034-0.015c1.045-0.008,2.111-0.106,3.134-0.325
	c2.448-0.521,3.191-2.084,2.028-4.307c-1.802-3.444-4.006-6.609-6.846-9.293c-2.521-2.38-5.464-4.051-8.937-4.351
	c-2.74-0.236-5.533-0.239-8.279-0.021c-8.809,0.698-14.17,7.967-16.541,14.906c-0.789,2.313,0.193,3.404,2.629,3.405
	C233.186,108.239,238.776,108.239,244.369,108.239z"/>
<path fill="#005582"  d="M171.52,110.968c-2.283,0-5.03-0.02-8.36-0.046c-5.172-0.037-11.606-0.085-19.896-0.085l-0.522-2.295
	c2.064-0.994,4.598-1.854,7.276-2.764c11.218-3.81,25.178-8.553,25.019-28.196c-0.048-5.752-0.439-11.346-0.785-16.281
	c-0.326-4.625-0.607-8.619-0.582-12.054c0.064-8.964,1.6-11.285,7.455-11.285c2.779,0,4.553,1.061,5.58,3.338
	c0.9,2.006,1.284,5.123,1.283,10.425c-0.001,3.495-0.249,6.837-0.455,9.027c-0.313,3.321-0.923,6.807-1.51,10.177
	c-0.961,5.522-1.953,11.232-1.789,16.686c0.148,4.889,0.963,8.403,1.616,11.232c0.887,3.823,1.522,6.584-0.638,9.185
	C183.048,110.64,181.514,110.968,171.52,110.968z M149.708,108.435c5.304,0.017,9.719,0.048,13.467,0.075
	c3.326,0.024,6.068,0.045,8.346,0.045c10.125,0,10.521-0.479,11.836-2.065c1.341-1.611,1.012-3.341,0.145-7.099
	c-0.645-2.775-1.521-6.578-1.676-11.704c-0.177-5.699,0.842-11.531,1.822-17.172c0.605-3.479,1.178-6.764,1.48-9.992
	c0.205-2.138,0.447-5.399,0.447-8.798c0.002-4.872-0.33-7.781-1.074-9.434c-0.631-1.396-1.545-1.916-3.377-1.916
	c-3.521,0-4.979,0-5.043,8.889c-0.022,3.341,0.254,7.292,0.573,11.868c0.349,4.969,0.745,10.603,0.793,16.43
	c0.173,21.389-15.333,26.655-26.653,30.502C150.429,108.188,150.065,108.313,149.708,108.435z"/>
<path fill="#005582" d="M5.412,41.371c1.908,4.391,5.335,7.507,9.386,9.82c10.245,5.873,20.924,6.26,31.772,1.86
	c3.994-1.625,6.978-4.674,9.792-7.884c0.396-0.453,0.613-1.114,1.114,0.17c0.689,1.737,1.52,3.371,2.889,4.674
	c0.547,0.529,1.152,0.992,1.907,1.18c2.493,0.624,3.975-0.462,4.155-3.031c0.123-1.879-0.17-3.691-0.897-5.429
	c-1.293-3.116-4.173-4.976-7.686-4.976H32.699c-8.347,0-16.684,0.028-25.031-0.021C5.091,37.727,4.166,38.53,5.412,41.371z
	 M59.25,41.542c0-0.35-0.019-1.01,0.614-0.822c1.718,0.567,3.966,3.947,3.768,5.807c-0.132,1.162-0.539,1.87-1.804,0.689
	C60.157,45.639,59.185,43.742,59.25,41.542z M9.793,40.286c14.796,0,29.591-0.019,44.387-0.019h1.851
	c-0.614,0.831-1.095,1.482-1.586,2.134c-2.739,3.645-5.977,6.722-10.339,8.328c-6.808,2.512-13.738,2.71-20.678,0.67
	c-5.844-1.728-10.754-4.9-14.154-10.103C8.82,40.606,8.679,40.286,9.793,40.286z"/>
<path fill="#005582" d="M189.892,85.497c0.08,0.752,0.415,1.316,1.072,1.661c5.113,2.711,8.758,6.853,11.594,11.774
	c0.064,0.109,0.521,0.945,0.582,1.146c0.77,2.563,0.375,5.213,0.406,7.837c0.013,1.327-0.022,2.655,0.035,3.983
	c0.069,1.905,1.133,2.574,2.553,2.574c2.283,0,2.283-2.349,2.283-2.358c0-8.13-0.01-20.544-0.138-27.376
	c-0.176-9.601-0.261-18.817-0.403-28.513c-0.022-1.143-0.225-3.198-0.517-4.329c-1.344-5.188-1.989-9.095-6.214-12.604
	c-0.357-0.288-0.739-0.577-1.154-0.762c-2.519-1.131-4.582-0.831-4.951,2.471c-0.625,5.541-1.201,11.092-1.803,16.646
	c-0.842,7.607-1.615,15.225-2.988,22.762C189.953,82.079,189.731,83.776,189.892,85.497z M192.927,82.299
	c1.085-7.953,2.057-15.918,3.117-23.872c0.634-4.802,1.084-9.615,1.408-14.452c0.06-0.958-0.035-2.401,1.041-2.644
	c0.967-0.208,1.627,1.016,2.226,1.813c1.188,1.547,1.894,3.359,2.747,5.09c0,0.011,0,0.011,0.012,0.023
	c1.641,4.768,1.826,9.719,1.813,14.695c0,7.052,0.114,14.105,0.07,21.159c-0.023,3.868-0.105,7.746-0.035,11.612
	c0,0.114-0.08,0.245-0.127,0.359c-0.611,0.044-0.463-0.647-0.854-0.785c-2.424-4.029-5.797-7.122-9.768-9.57
	C193.229,84.908,192.708,83.915,192.927,82.299z"/>
<path fill="#005582" d="M230.373,178.295L230.373,178.295v-12.224l2.348,3.011l10.76,2.509l-10.76,3.271L230.373,178.295z
	 M206.33,155.897L206.33,155.897h14.571l-3.674,6.44l-3.19,29.687l-3.674-29.687L206.33,155.897z M232.821,153.729L232.821,153.729
	l-7.825,18.004l8.488,19.328l-16.438-19.51L232.821,153.729z"/>
<path fill="#005582" d="M190.542,185.14L190.542,185.14v-18.007l2.088,2.251l9.541,2.037l-9.541,2.251l-2.034,2.466l2.034,2.196
	l9.541,1.981l-9.541,2.307L190.542,185.14z M165.031,177.313L165.031,177.313v-10.985l2.092,2.733l9.537,2.412l-9.537,2.733
	L165.031,177.313z M190.97,155.663L190.97,155.663l-6.967,16.023l7.557,17.205l-14.686-17.42L190.97,155.663z M190.542,167.024
	L190.542,167.024v-9.058l2.088,2.251l9.541,1.983l-9.541,2.305L190.542,167.024z"/>
<path fill="#005582" d="M140.017,153.935L140.017,153.935l-7.694,17.699l8.345,19.004l-16.219-19.24L140.017,153.935z
	 M138.301,166.483L138.301,166.483h21.076l-2.666,4.381l-2.428,19.949l-2.664-19.949l-2.899-4.086l-2.485,4.086l-2.367,19.949
	l-2.665-19.949L138.301,166.483z M140.433,165.892L140.433,165.892v-9.115l3.669,2.25l16.812,2.07l-16.812,2.25L140.433,165.892z"/>
<g>
	<path fill="#005582" d="M102.418,152.161L102.418,152.161H120.3l-4.434,7.98l-3.99,36.428l-4.433-36.428L102.418,152.161z"/>
	<path fill="#005582" d="M83.096,184.709L83.096,184.709v-26.306l4.062,3.326l18.493,3.029l-18.493,3.324l-3.788,3.621l3.788,3.102
		l18.493,2.955l-18.493,3.325L83.096,184.709z"/>
</g>
<path fill="#005582" d="M60.208,170.329L60.208,170.329v-11.885l3.364,2.99l15.325,2.615l-15.325,2.99L60.208,170.329z
	 M41.893,155.38L41.893,155.38h16.744l-4.187,7.4l-3.663,33.34l-4.261-33.34L41.893,155.38z M60.281,184.831L60.281,184.831v-11.734
	l3.364,2.914l15.325,2.616l-15.325,2.916L60.281,184.831z"/>
</svg>
